<?xml version="1.0" standalone="no"?>
<!DOCTYPE svg PUBLIC "-//W3C//DTD SVG 20010904//EN"
 "http://www.w3.org/TR/2001/REC-SVG-20010904/DTD/svg10.dtd">
<svg version="1.0" xmlns="http://www.w3.org/2000/svg"
 width="1024.000000pt" height="1024.000000pt" viewBox="0 0 1024.000000 1024.000000"
 preserveAspectRatio="xMidYMid meet" >

<g transform="translate(0.000000,1024.000000) scale(0.100000,-0.100000)"
fill="#000000" stroke="none" >
<path fill="#fd06b7" d="M0 5120 l0 -5120 5120 0 5120 0 0 5120 0 5120 -5120 0 -5120 0 0
-5120z m4715 4384 c-32 -25 -146 -90 -190 -109 -22 -9 -99 -41 -171 -70 -209
-85 -256 -112 -389 -233 -46 -40 -56 -55 -47 -64 7 -7 12 -19 12 -27 -1 -10
-6 -7 -14 8 l-13 24 -28 -41 c-40 -60 -42 -52 -5 16 37 66 66 99 133 153 57
46 55 48 -13 13 -110 -57 -195 -167 -235 -302 -10 -34 -20 -60 -22 -58 -4 4 6
44 22 91 l7 20 -17 -20 c-30 -36 -57 -98 -87 -195 -15 -52 -26 -79 -23 -60 12
83 24 186 25 204 0 18 -1 19 -20 1 -46 -42 -89 -174 -106 -330 l-8 -70 -8 70
c-6 53 -4 81 8 118 9 27 14 51 11 54 -6 5 -87 -114 -87 -128 0 -4 10 -9 22
-11 13 -2 24 -11 26 -21 3 -14 0 -16 -22 -7 l-26 10 -1 -73 c-1 -39 -4 -99 -8
-132 l-7 -60 -8 75 c-4 41 -13 105 -20 142 -15 81 -14 85 114 253 246 323 297
368 579 510 142 70 599 264 626 264 6 0 1 -7 -10 -15z m1107 -612 c84 -60 220
-156 302 -213 225 -158 347 -251 365 -279 15 -24 15 -25 -4 -9 -11 9 -31 20
-45 24 -35 11 -205 130 -259 182 -25 24 -48 43 -53 43 -14 0 -296 211 -458
343 -76 62 8 12 152 -91z m-1563 -49 c-43 -87 -88 -194 -100 -238 -12 -44 -31
-114 -44 -155 -14 -47 -19 -77 -12 -81 5 -4 0 -10 -12 -14 -13 -4 -25 -5 -28
-2 -9 10 27 173 60 272 35 103 88 216 130 279 19 27 78 96 83 96 0 0 -34 -71
-77 -157z m1371 63 c0 -3 -4 -8 -10 -11 -5 -3 -10 -1 -10 4 0 6 5 11 10 11 6
0 10 -2 10 -4z m30 -26 c0 -5 -2 -10 -4 -10 -3 0 -8 5 -11 10 -3 6 -1 10 4 10
6 0 11 -4 11 -10z m44 -19 c6 -10 -22 -37 -29 -29 -8 7 5 38 15 38 5 0 11 -4
14 -9z m-939 -37 c-13 -19 -21 -43 -19 -52 5 -13 4 -14 -4 -3 -17 23 -50 -3
-45 -36 l4 -28 -15 25 c-11 18 -15 20 -16 9 0 -22 26 -43 45 -35 8 3 15 1 15
-4 0 -6 6 -9 12 -7 19 3 22 -39 3 -47 -23 -9 -38 3 -32 25 3 11 1 19 -4 19
-11 0 -11 -33 0 -83 5 -20 5 -39 1 -42 -5 -3 -10 9 -12 27 -3 32 -28 53 -28
24 0 -9 -11 -18 -25 -22 -14 -3 -25 -11 -25 -17 0 -6 -3 -8 -6 -5 -9 10 15 48
30 48 17 0 51 38 42 48 -4 4 -16 -4 -27 -17 -11 -13 -22 -21 -25 -18 -4 3 -14
-3 -23 -14 -16 -20 -17 -19 -45 41 -16 33 -27 63 -24 65 8 8 233 134 240 135
4 0 -3 -16 -17 -36z m978 -1 c-4 -10 -2 -14 4 -10 16 10 43 -3 43 -19 0 -8 6
-14 13 -14 17 -1 213 -187 205 -195 -8 -9 -274 194 -282 215 -3 8 -8 20 -11
25 -3 6 4 11 14 12 14 1 18 -3 14 -14z m-993 -100 c0 -15 -2 -15 -24 -7 -23 9
-20 23 4 21 11 -1 20 -7 20 -14z m-221 -78 l0 -20 -9 20 c-5 11 -9 27 -9 35
-1 13 0 13 9 0 5 -8 9 -24 9 -35z m212 -58 c-16 -16 -20 -5 -8 23 9 22 11 23
14 6 3 -10 0 -23 -6 -29z m-193 -42 c0 -16 -2 -15 -8 5 -4 14 -8 36 -8 50 0
22 1 22 8 -5 4 -16 8 -39 8 -50z m-921 43 c-3 -8 -6 -5 -6 6 -1 11 2 17 5 13
3 -3 4 -12 1 -19z m886 -43 c13 -53 25 -70 92 -140 100 -104 165 -182 141
-168 -31 17 -216 206 -216 221 0 8 -6 12 -12 9 -8 -3 -13 5 -14 22 0 14 -4 49
-8 76 -11 66 -2 55 17 -20z m180 28 c3 -16 1 -32 -4 -38 -7 -7 -8 -4 -4 6 10
26 -14 33 -24 7 -8 -18 -10 -19 -10 -5 -1 22 16 57 28 57 5 0 11 -12 14 -27z
m40 -27 c-3 -14 -11 -27 -18 -30 -9 -3 -11 2 -7 17 4 17 18 35 28 37 1 0 -1
-11 -3 -24z m45 -37 c2 -24 0 -41 -4 -36 -4 4 -18 0 -30 -8 -21 -13 -24 -13
-32 1 -7 12 -4 24 11 40 11 13 23 21 28 19 4 -3 5 5 2 16 -4 16 -2 20 8 17 8
-3 15 -23 17 -49z m-1422 -264 c-5 -62 -40 -185 -55 -195 -15 -9 -42 -70 -31
-70 5 0 10 6 10 13 0 8 10 22 22 33 20 18 21 18 15 1 -6 -16 0 -15 40 8 61 35
56 30 -42 -42 l-80 -59 23 70 c12 39 29 85 37 103 11 23 15 70 15 182 0 97 4
160 12 177 12 25 14 20 26 -67 7 -52 11 -121 8 -154z m1429 196 c-3 -10 -1
-30 4 -45 8 -20 8 -26 -4 -26 -8 0 -18 -8 -24 -17 -8 -16 -11 -15 -20 10 -25
65 -24 72 11 83 18 6 34 12 36 13 2 0 1 -7 -3 -18z m-344 -48 c-10 -4 -10 -7
-1 -13 16 -10 -80 -42 -126 -42 -21 0 -32 -4 -27 -11 3 -5 1 -7 -4 -4 -25 15
-393 -130 -393 -155 0 -7 5 -6 14 1 10 9 15 8 20 -4 4 -10 -1 -15 -15 -15 -11
0 -18 -4 -14 -10 3 -5 12 -7 19 -4 8 3 17 1 21 -5 4 -7 -4 -11 -19 -11 -14 0
-28 -5 -32 -11 -4 -7 3 -10 17 -9 13 1 30 2 37 1 17 -1 15 -31 -3 -31 -8 0
-15 -5 -15 -11 0 -6 9 -8 20 -4 14 5 20 2 20 -9 0 -9 -9 -16 -20 -16 -11 0
-20 -4 -20 -10 0 -5 9 -10 20 -10 11 0 20 -7 20 -15 0 -8 -5 -15 -11 -15 -6 0
-18 -7 -26 -16 -13 -13 -17 -13 -24 -2 -6 9 -9 7 -9 -9 l0 -22 35 20 c21 12
35 16 35 10 0 -7 -7 -14 -15 -17 -8 -4 -15 -13 -15 -21 0 -9 -8 -13 -22 -11
-19 3 -23 15 -40 113 -12 72 -25 120 -39 138 l-20 28 33 13 c157 64 557 195
593 195 12 -1 15 -3 6 -6z m1999 -34 c-10 -34 -20 -50 -20 -31 0 14 18 62 24
62 3 0 1 -14 -4 -31z m-1851 -59 c-1 -23 -2 -22 -9 5 -4 17 -11 39 -14 50 -5
13 -2 12 8 -5 8 -14 15 -36 15 -50z m2046 -2 c70 -59 91 -88 63 -88 -7 0 -37
24 -67 53 -30 29 -51 43 -46 32 21 -56 35 -111 31 -122 -8 -19 -34 -16 -67 8
-35 25 -36 36 -4 99 15 29 21 51 15 55 -10 6 -14 25 -5 25 3 0 39 -28 80 -62z
m-1831 20 c22 -108 11 -138 -21 -58 -21 51 -23 64 -12 71 22 14 28 11 33 -13z
m-1057 -30 c-3 -8 -6 -5 -6 6 -1 11 2 17 5 13 3 -3 4 -12 1 -19z m-320 -40
c-3 -8 -6 -5 -6 6 -1 11 2 17 5 13 3 -3 4 -12 1 -19z m313 18 c0 -2 -7 -7 -16
-10 -8 -3 -12 -2 -9 4 6 10 25 14 25 6z m837 -18 c-3 -8 -6 -5 -6 6 -1 11 2
17 5 13 3 -3 4 -12 1 -19z m20 -10 c-3 -7 -5 -2 -5 12 0 14 2 19 5 13 2 -7 2
-19 0 -25z m-1366 -146 c-11 -144 -13 -152 -57 -253 -25 -57 -62 -126 -81
-152 -27 -36 -33 -51 -24 -60 13 -13 15 -203 2 -211 -4 -3 -8 9 -8 27 1 17 0
68 -1 112 l-2 79 -37 -35 c-21 -20 -54 -48 -74 -63 l-37 -27 -4 -197 c-3 -108
-3 -199 -2 -201 2 -2 14 10 28 25 27 30 33 23 16 -20 -11 -29 -42 -51 -87 -61
l-32 -6 5 153 c3 84 7 194 10 244 l6 90 34 19 c51 27 136 121 179 198 43 78
99 232 141 389 15 59 30 105 32 103 2 -2 -1 -71 -7 -153z m1449 154 c0 -2 -7
-6 -15 -10 -8 -3 -15 -1 -15 4 0 6 7 10 15 10 8 0 15 -2 15 -4z m21 -28 c0 -7
2 -23 5 -35 2 -12 -1 -25 -6 -28 -9 -5 -14 15 -13 52 0 6 -6 9 -15 6 -10 -4
-13 -2 -8 5 10 16 36 15 37 0z m-164 -30 c-3 -7 -5 -2 -5 12 0 14 2 19 5 13 2
-7 2 -19 0 -25z m244 15 c13 -16 12 -17 -3 -4 -10 7 -18 15 -18 17 0 8 8 3 21
-13z m-1031 -20 c0 -20 -3 -24 -11 -16 -9 9 -21 3 -48 -23 -51 -48 -78 -44
-50 7 9 17 77 56 102 58 4 1 7 -11 7 -26z m857 -15 c-3 -7 -5 -2 -5 12 0 14 2
19 5 13 2 -7 2 -19 0 -25z m222 -10 c10 -30 9 -31 -4 -14 -8 11 -15 26 -15 33
0 22 8 14 19 -19z m-79 12 c0 -5 -5 -10 -11 -10 -5 0 -7 5 -4 10 3 6 8 10 11
10 2 0 4 -4 4 -10z m-203 -42 c-3 -7 -5 -2 -5 12 0 14 2 19 5 13 2 -7 2 -19 0
-25z m149 1 c3 -6 0 -15 -7 -20 -22 -13 -28 -11 -26 11 1 22 21 27 33 9z m99
-9 c3 -5 1 -10 -4 -10 -6 0 -11 5 -11 10 0 6 2 10 4 10 3 0 8 -4 11 -10z
m-1235 -4 c0 -2 -8 -10 -17 -17 -16 -13 -17 -12 -4 4 13 16 21 21 21 13z m177
-111 c28 7 31 -11 4 -20 -13 -4 -28 3 -46 19 -21 20 -31 23 -46 16 -26 -15
-13 -37 20 -35 28 2 30 -2 51 -72 12 -41 20 -76 19 -78 -2 -1 -49 -27 -104
-55 -55 -29 -140 -75 -188 -103 -49 -27 -90 -47 -93 -44 -3 2 28 23 68 45 40
22 90 58 111 80 43 47 47 59 12 36 -14 -9 -25 -23 -25 -32 0 -12 -3 -13 -11
-5 -8 8 -22 4 -52 -18 -22 -16 -44 -29 -49 -29 -13 0 -9 37 6 49 11 9 12 20 5
44 -12 41 -11 57 1 57 6 0 10 -16 10 -35 0 -19 5 -35 11 -35 5 0 8 -4 5 -9 -4
-5 3 -7 14 -4 11 3 21 9 21 14 1 5 3 14 4 19 1 6 3 15 4 21 1 7 11 9 26 5 19
-5 25 -2 25 10 0 12 -6 15 -22 10 -13 -3 -29 -6 -36 -6 -7 0 -11 -4 -7 -9 3
-6 -3 -9 -13 -8 -13 1 -18 7 -14 19 9 35 -26 28 -108 -22 -78 -47 -119 -63
-105 -41 3 6 55 45 116 88 61 43 139 97 173 121 33 24 83 56 111 72 l50 30 15
-51 c13 -44 17 -49 37 -44z m968 42 c1 -26 -2 -47 -6 -47 -10 0 -20 30 -13 41
3 5 0 9 -7 9 -8 0 -8 4 1 15 10 12 9 15 -6 15 -16 0 -17 2 -4 10 25 16 34 5
35 -43z m-1190 33 c-3 -5 -12 -10 -18 -10 -7 0 -6 4 3 10 19 12 23 12 15 0z
m1084 -138 c1 -7 -4 -10 -10 -6 -6 3 1 -12 15 -35 27 -42 22 -56 -7 -23 -23
25 -38 112 -30 170 l7 47 12 -70 c7 -38 13 -76 13 -83z m-849 113 c-7 -8 -17
-15 -23 -15 -6 0 -2 7 9 15 25 19 30 19 14 0z m877 -27 c-3 -8 -6 -5 -6 6 -1
11 2 17 5 13 3 -3 4 -12 1 -19z m-1167 4 c0 -14 -39 -46 -47 -39 -3 4 2 16 12
27 19 21 35 26 35 12z m-60 -59 c0 -5 -4 -13 -8 -19 -12 -18 -135 -104 -149
-104 -32 0 -7 32 60 79 68 47 97 60 97 44z m1252 -28 c3 -13 2 -22 -2 -20 -4
3 -10 16 -12 30 -3 13 -2 22 2 20 4 -3 10 -16 12 -30z m-889 2 c4 3 7 -1 7
-10 0 -35 -28 -29 -49 11 -12 23 -12 23 12 8 13 -9 27 -13 30 -9z m178 -58
c-12 -11 -19 -24 -16 -30 4 -5 1 -9 -4 -9 -19 0 -12 32 12 54 12 12 24 17 26
13 2 -5 -6 -17 -18 -28z m934 12 c-25 -25 -130 -71 -159 -70 -20 1 -24 3 -11
6 37 8 110 37 140 55 33 20 44 23 30 9z m-978 -43 c-3 -7 -5 -2 -5 12 0 14 2
19 5 13 2 -7 2 -19 0 -25z m-116 7 c-1 -15 -24 -12 -29 3 -3 9 2 13 12 10 10
-1 17 -7 17 -13z m4394 -5 c25 -11 -1 -11 -35 0 -20 6 -21 8 -5 8 11 0 29 -3
40 -8z m-4781 -35 c3 -8 1 -15 -3 -15 -5 0 -11 7 -15 15 -3 8 -1 15 3 15 5 0
11 -7 15 -15z m406 -3 c0 -5 -12 -14 -27 -21 l-28 -12 25 21 c29 22 30 23 30
12z m210 4 c0 -3 -4 -8 -10 -11 -5 -3 -10 -1 -10 4 0 6 5 11 10 11 6 0 10 -2
10 -4z m-645 -15 c3 -6 -3 -15 -14 -21 -14 -7 -22 -7 -27 2 -4 6 -3 8 3 5 6
-4 13 0 17 8 6 17 12 19 21 6z m110 -11 c-3 -5 -11 -10 -16 -10 -6 0 -7 5 -4
10 3 6 11 10 16 10 6 0 7 -4 4 -10z m675 0 c8 -5 12 -11 9 -14 -3 -3 -14 1
-25 9 -21 16 -8 20 16 5z m-980 -294 c-7 -7 -10 31 -10 121 0 179 14 202 18
29 2 -86 -1 -143 -8 -150z m135 274 c-3 -5 -12 -10 -18 -10 -7 0 -6 4 3 10 19
12 23 12 15 0z m425 -4 c-19 -18 -360 -213 -418 -238 -24 -11 -48 -17 -55 -15
-7 2 2 10 18 18 36 16 411 216 440 235 27 17 33 17 15 0z m375 3 c11 -16 1
-19 -13 -3 -7 8 -8 14 -3 14 5 0 13 -5 16 -11z m-145 -17 c0 -28 -29 -62 -53
-62 -34 0 -118 33 -114 45 5 14 35 11 80 -9 l37 -16 0 30 c0 25 4 30 25 30 17
0 25 -5 25 -18z m4460 8 c8 -5 11 -10 5 -10 -5 0 -17 5 -25 10 -8 5 -10 10 -5
10 6 0 17 -5 25 -10z m-5102 -89 c2 -23 -1 -41 -6 -41 -5 0 -9 16 -10 36 -1
20 -7 43 -14 52 -11 13 -10 14 8 4 14 -7 21 -22 22 -51z m70 20 l2 -26 -18 21
c-9 12 -24 24 -32 27 -8 2 -1 5 15 4 26 0 31 -4 33 -26z m-101 5 c-2 -6 -11
-10 -21 -8 -18 3 -21 -21 -10 -77 l7 -31 34 21 c19 12 36 19 39 16 3 -2 -15
-16 -39 -30 l-45 -24 -6 36 c-3 20 -6 52 -6 71 0 30 3 35 25 36 16 1 24 -3 22
-10z m-2 -46 c3 -6 -1 -7 -9 -4 -18 7 -21 14 -7 14 6 0 13 -4 16 -10z m480
-13 c-134 -77 -343 -167 -385 -167 -28 0 -25 20 3 21 12 0 105 38 207 84 179
81 257 109 175 62z m280 -57 c21 -22 37 -40 34 -40 -3 0 -23 18 -44 40 -21 22
-37 40 -34 40 3 0 23 -18 44 -40z m-145 -5 c0 -8 9 -20 20 -27 28 -18 25 -25
-20 -48 -29 -15 -47 -34 -62 -65 -17 -35 -24 -42 -31 -30 -4 8 -14 15 -22 15
-19 0 -47 -30 -42 -45 6 -14 -137 -72 -268 -109 -87 -24 -134 -41 -202 -73
-54 -25 -61 -8 -8 19 28 14 70 36 95 49 25 13 48 28 52 33 4 6 8 8 8 4 0 -5
28 13 63 38 34 25 74 52 90 60 28 15 35 38 16 49 -5 4 -19 -1 -30 -11 -10 -9
-19 -13 -19 -9 0 5 -11 -2 -25 -15 -17 -16 -25 -19 -25 -9 1 17 70 62 141 92
48 21 52 21 64 4 18 -25 28 -21 20 10 -4 16 -3 25 1 21 4 -4 12 -4 18 1 9 8
115 51 124 51 2 0 0 -4 -3 -10 -3 -5 -2 -10 3 -10 6 0 12 7 16 15 7 19 26 19
26 0z m129 -95 c3 -3 19 -24 35 -48 17 -24 47 -51 68 -62 l39 -19 -7 22 c-6
20 -5 21 11 6 21 -21 35 -123 33 -249 -1 -68 -3 -82 -7 -50 -4 32 -11 46 -23
48 -10 2 -18 -1 -18 -7 0 -6 5 -11 10 -11 20 0 9 -31 -20 -57 -30 -26 -38 -43
-21 -43 5 0 11 9 14 21 3 12 11 19 19 16 7 -2 11 -11 9 -18 -2 -8 -4 -29 -5
-48 -1 -37 -26 -57 -26 -22 0 23 -7 26 -30 11 -13 -8 -12 -11 4 -23 12 -9 17
-20 13 -31 -4 -10 -1 -24 8 -32 28 -28 19 -46 -20 -38 -28 5 -35 3 -35 -10 0
-9 5 -16 11 -16 6 0 9 -7 5 -15 -3 -9 3 -23 14 -32 11 -10 20 -26 20 -37 0
-19 0 -19 -18 0 -9 10 -27 24 -39 31 -17 10 -22 9 -27 -3 -11 -27 -7 -33 21
-28 23 4 25 3 13 -11 -7 -8 -10 -19 -6 -22 4 -4 11 -1 16 7 6 8 10 10 10 4 0
-17 -27 -37 -40 -29 -6 3 -7 11 -4 17 4 6 3 8 -2 5 -6 -3 -16 -2 -24 3 -13 8
-16 67 -20 347 -5 315 -2 495 8 448 2 -11 7 -22 11 -25z m172 3 c13 -16 12
-17 -3 -4 -10 7 -18 15 -18 17 0 8 8 3 21 -13z m39 7 c0 -5 -2 -10 -4 -10 -3
0 -8 5 -11 10 -3 6 -1 10 4 10 6 0 11 -4 11 -10z m80 -68 c10 -37 15 -810 5
-801 -2 3 -7 86 -10 185 -12 365 -24 590 -34 624 -6 19 -11 44 -11 55 1 19 2
19 20 -3 11 -13 24 -40 30 -60z m2768 -196 c134 -28 268 -79 372 -141 76 -45
196 -145 240 -200 13 -16 -3 -5 -35 26 -75 69 -128 106 -230 156 -91 46 -269
106 -368 124 -51 10 -64 15 -56 25 7 9 5 14 -8 18 -20 6 50 -1 85 -8z m-3600
-26 c-2 -6 -58 -35 -125 -65 -67 -29 -158 -72 -203 -94 -86 -44 -95 -47 -83
-28 4 6 8 21 8 32 0 15 7 20 30 22 17 1 22 -1 13 -3 -10 -3 -18 -10 -18 -16 0
-17 24 -3 35 20 5 12 16 22 23 22 9 0 12 6 8 15 -6 18 5 20 21 4 9 -9 21 -8
46 5 19 9 40 16 47 16 7 0 10 7 7 15 -8 19 10 30 27 16 17 -14 46 -4 40 14 -6
15 29 29 87 33 26 2 40 -1 37 -8z m-323 -50 c-3 -5 -12 -10 -18 -10 -7 0 -6 4
3 10 19 12 23 12 15 0z m105 -6 c0 -8 -4 -12 -10 -9 -5 3 -10 10 -10 16 0 5 5
9 10 9 6 0 10 -7 10 -16z m329 12 c-2 -2 -51 -35 -109 -74 -133 -89 -266 -205
-314 -274 -39 -57 -66 -131 -66 -180 0 -31 -15 -38 -23 -10 -3 9 -13 36 -21
60 -13 35 -15 65 -10 154 l7 111 116 55 c109 52 440 176 420 158z m3174 -97
c26 -5 65 -9 85 -9 61 0 311 -73 435 -128 52 -23 56 -26 40 -39 -10 -8 -12
-12 -5 -8 6 3 12 5 12 3 0 -17 -43 -105 -74 -151 -45 -67 -27 -72 -158 50 -73
69 -98 85 -98 64 0 -18 -154 -296 -186 -336 -17 -22 -60 -84 -94 -137 -107
-169 -83 -109 46 114 41 69 98 178 128 242 l55 116 -23 27 -23 27 -25 -40
c-24 -37 -63 -106 -325 -569 -65 -115 -131 -237 -145 -270 -26 -57 -30 -60
-75 -72 -26 -7 -49 -10 -52 -8 -2 3 9 22 25 43 40 50 67 93 61 98 -2 2 -18 -1
-36 -7 -18 -6 -34 -10 -35 -8 -2 2 14 36 36 74 70 122 333 607 375 690 43 87
66 148 53 140 -5 -3 -10 4 -12 16 -2 15 -27 -22 -82 -122 -89 -163 -304 -560
-389 -720 l-57 -106 -68 -22 c-93 -29 -198 -51 -249 -51 l-43 0 67 108 c189
303 412 669 527 864 l88 148 86 -6 c48 -3 109 -10 135 -15z m354 15 c-3 -3
-12 -4 -19 -1 -8 3 -5 6 6 6 11 1 17 -2 13 -5z m70 -20 c-3 -3 -12 -4 -19 -1
-8 3 -5 6 6 6 11 1 17 -2 13 -5z m73 -26 c10 -6 7 -7 -10 -2 -14 3 -32 11 -40
16 -10 6 -7 7 10 2 14 -3 32 -11 40 -16z m74 -23 c51 -21 45 -27 -9 -8 -25 8
-45 17 -45 19 0 8 18 4 54 -11z m-4446 -68 c-28 -25 -29 -27 -5 -13 15 9 27
12 27 7 0 -6 -46 -45 -102 -87 -111 -84 -144 -110 -228 -187 -61 -57 -52 -54
30 8 30 23 110 78 176 123 l121 81 6 -207 c6 -208 20 -305 61 -420 18 -51 23
-49 -106 -55 -122 -7 -157 2 -296 68 -169 81 -222 132 -222 214 0 96 134 233
445 454 108 77 120 84 123 64 3 -14 -7 -30 -30 -50z m1272 -16 c0 -6 -4 -13
-10 -16 -5 -3 -10 1 -10 9 0 9 5 16 10 16 6 0 10 -4 10 -9z m960 -47 c-10 -18
-12 -75 -8 -236 l5 -213 -14 120 c-7 66 -14 171 -16 233 -2 103 0 115 18 128
25 18 33 2 15 -32z m2365 -44 c52 -31 90 -62 110 -89 27 -39 30 -51 33 -137 4
-105 15 -79 -112 -281 -38 -62 -73 -113 -76 -113 -3 0 -17 25 -30 56 -19 47
-21 61 -12 91 9 29 8 34 -4 29 -8 -3 -14 1 -14 9 0 8 -4 15 -9 15 -20 0 -20
35 -1 73 12 22 19 41 17 43 -7 8 -57 -15 -57 -26 0 -5 -6 -10 -13 -10 -15 0
-87 114 -87 136 0 8 14 36 30 62 17 27 30 52 30 55 0 3 18 33 40 67 23 33 38
65 34 71 -12 20 38 -1 121 -51z m-3355 -20 c0 -11 -7 -20 -15 -20 -18 0 -19
12 -3 28 16 16 18 15 18 -8z m713 -32 c-3 -29 -10 -55 -15 -56 -4 -2 -6 -8 -3
-12 3 -5 1 -11 -5 -15 -17 -10 -12 88 6 113 8 12 17 22 19 22 2 0 1 -24 -2
-52z m91 -67 c3 -34 8 -89 11 -123 l5 -63 -16 45 c-8 25 -16 63 -17 85 -2 22
-5 45 -9 50 -3 6 -8 27 -12 48 -4 21 -10 46 -12 55 -4 11 3 7 19 -9 18 -20 26
-43 31 -88z m-974 50 c0 -10 -7 -24 -15 -31 -8 -7 -15 -22 -15 -34 0 -39 32
-120 63 -161 l30 -40 -31 29 c-38 35 -72 101 -72 140 0 15 -5 36 -11 47 -8 16
-7 26 6 45 18 29 45 32 45 5z m825 -120 c14 -62 24 -116 21 -118 -2 -2 -7 11
-11 29 -4 18 -18 69 -31 114 -26 87 -30 114 -14 98 5 -5 21 -61 35 -123z
m-114 25 c9 -46 20 -93 24 -104 4 -16 2 -22 -9 -22 -9 0 -33 32 -57 75 -22 41
-43 75 -46 75 -3 0 -3 -27 1 -60 8 -67 -1 -76 -33 -31 -17 24 -19 34 -11 56
13 33 13 45 0 25 -7 -12 -10 -8 -10 15 0 21 -3 26 -9 16 -5 -7 -11 -9 -14 -4
-4 6 0 19 8 29 12 17 17 18 46 7 25 -10 37 -10 58 1 14 8 28 12 31 10 2 -3 12
-42 21 -88z m-164 2 c-3 -8 -6 -5 -6 6 -1 11 2 17 5 13 3 -3 4 -12 1 -19z
m-408 -103 c69 -72 91 -101 91 -121 l0 -27 -26 24 c-14 13 -27 22 -29 19 -6
-11 -124 144 -138 183 -12 34 11 16 102 -78z m-708 25 c11 6 23 10 27 8 4 -2
-26 -19 -66 -39 -40 -20 -68 -31 -63 -26 5 5 7 16 4 23 -4 10 5 14 33 15 24 1
30 3 16 6 -12 2 -20 9 -17 14 4 5 14 5 26 -1 13 -8 25 -7 40 0z m3834 -233
c-31 -53 -60 -99 -64 -101 -4 -3 -17 23 -30 56 l-24 61 54 109 54 109 33 -68
34 -68 -57 -98z m-3300 193 c0 -8 -26 -24 -65 -39 -36 -14 -66 -26 -68 -27 -2
-1 9 -22 23 -46 l27 -43 -56 55 c-31 30 -56 58 -56 62 0 4 10 8 23 9 12 0 49
11 82 24 66 26 90 27 90 5z m482 -22 c-3 -8 -6 -5 -6 6 -1 11 2 17 5 13 3 -3
4 -12 1 -19z m-751 -17 c21 -15 50 -40 64 -55 18 -20 3 -13 -52 23 -57 38 -85
51 -110 50 l-33 -2 30 -4 c41 -6 91 -47 115 -93 28 -54 25 -68 -15 -84 -19 -8
-35 -19 -35 -24 0 -4 12 -24 26 -43 14 -19 34 -52 45 -74 21 -43 13 -34 -38
39 -18 25 -54 60 -80 76 -144 92 -277 55 -456 -124 -88 -89 -97 -96 -83 -62
94 224 325 404 522 405 52 1 67 -3 100 -28z m-391 1 c-53 -42 -60 -46 -33 -19
16 15 31 27 35 27 4 0 3 -3 -2 -8z m1164 -52 c1 -13 0 -13 -9 0 -5 8 -9 24 -9
35 l0 20 9 -20 c5 -11 9 -27 9 -35z m404 3 c9 -24 15 -43 12 -43 -6 0 -35 69
-35 83 0 15 5 7 23 -40z m124 25 c-3 -8 -6 -5 -6 6 -1 11 2 17 5 13 3 -3 4
-12 1 -19z m1960 -33 c-5 -30 -22 -68 -56 -117 -27 -40 -83 -135 -125 -210
-45 -81 -97 -159 -127 -190 l-50 -53 21 43 c12 24 37 65 56 91 30 43 124 232
124 249 0 4 -9 -4 -20 -18 -42 -53 -17 2 38 87 64 97 118 163 134 163 7 0 8
-17 5 -45z m-3970 3 c-3 -7 -5 -2 -5 12 0 14 2 19 5 13 2 -7 2 -19 0 -25z
m1214 -30 c11 -21 11 -22 -4 -9 -10 7 -17 17 -17 22 0 15 9 10 21 -13z m-1153
-167 c19 -49 22 -74 6 -59 -12 12 -53 147 -58 194 -6 48 -6 47 12 -16 11 -36
29 -89 40 -119z m1410 110 c6 -18 -36 9 -43 28 -5 11 -2 11 17 -1 12 -8 24
-20 26 -27z m599 -13 c-3 -7 -5 -2 -5 12 0 14 2 19 5 13 2 -7 2 -19 0 -25z
m-1439 -83 c3 -3 -1 -12 -9 -20 -14 -14 -628 -358 -740 -415 -31 -16 -70 -41
-88 -56 -36 -30 -45 -29 -28 5 7 14 42 40 79 60 81 44 104 64 30 27 -91 -46
-68 -22 52 55 64 41 185 121 269 179 184 126 262 169 325 179 43 7 97 0 110
-14z m3852 -82 c0 -23 -154 -273 -162 -260 -4 6 -15 33 -24 59 l-16 48 53 87
c29 49 61 101 72 116 l19 28 29 -33 c15 -18 28 -38 29 -45z m-3764 -15 c31
-60 55 -143 60 -202 2 -35 0 -56 -5 -50 -8 8 -84 200 -98 246 -7 23 4 51 17
43 6 -3 17 -20 26 -37z m3311 -40 c11 -18 36 -78 57 -133 21 -55 67 -161 102
-236 35 -74 64 -144 64 -155 0 -28 -57 -141 -75 -147 -11 -5 -11 2 2 46 8 29
21 63 30 75 8 13 13 25 11 26 -2 2 -43 9 -93 16 -187 27 -234 83 -234 277 0
103 2 112 30 161 33 58 52 71 80 53 15 -9 19 -8 19 3 0 8 -4 18 -10 21 -10 6
-14 25 -6 25 2 0 13 -15 23 -32z m-4117 -14 c106 -34 124 -46 99 -71 -9 -9
-25 -5 -63 14 -28 15 -85 41 -126 59 -104 46 -54 45 90 -2z m870 1 c0 -5 -5
-3 -10 5 -5 8 -10 20 -10 25 0 6 5 3 10 -5 5 -8 10 -19 10 -25z m-275 -146
l24 -46 -25 -12 c-33 -15 -34 -14 -34 8 0 10 -7 35 -15 54 -14 34 -16 35 -42
22 -416 -200 -464 -227 -457 -247 4 -12 1 -24 -7 -30 -11 -8 -11 -9 1 -5 9 2
20 -7 28 -26 18 -42 15 -51 -18 -70 -19 -12 -30 -26 -30 -40 0 -29 15 -53 24
-38 4 5 55 36 114 67 312 165 496 265 507 275 22 21 34 7 40 -46 7 -49 4 -63
-24 -120 -23 -50 -36 -65 -52 -65 -17 0 -20 -4 -15 -23 3 -14 -2 -34 -14 -52
-11 -17 -20 -26 -20 -21 0 5 -7 2 -16 -5 -14 -11 -19 -10 -34 9 -10 12 -24 22
-32 22 -10 0 -9 -3 2 -10 13 -9 12 -13 -8 -29 -21 -18 -22 -58 -1 -45 5 3 9
-11 9 -31 0 -20 -4 -34 -9 -30 -6 3 -14 -2 -19 -10 -5 -9 -15 -17 -23 -18 -8
-2 -29 -13 -46 -25 -17 -12 -37 -20 -45 -17 -8 3 -40 -6 -71 -20 -32 -14 -75
-25 -97 -25 -29 0 -40 -4 -40 -15 0 -9 -7 -18 -15 -21 -8 -4 -12 -11 -8 -18 3
-6 3 -8 -2 -4 -4 4 -14 3 -21 -3 -9 -7 -17 -4 -28 13 -9 12 -16 25 -16 29 0 9
50 30 59 24 5 -2 15 3 24 13 11 12 15 34 14 75 -2 48 -4 55 -14 40 -7 -9 -13
-25 -13 -36 0 -37 -38 -86 -67 -87 -7 0 -13 7 -13 15 0 22 -53 195 -89 293
-36 97 -36 98 -13 105 9 2 26 8 37 12 11 3 8 -1 -7 -10 -32 -18 -33 -21 -12
-29 8 -3 12 -2 9 4 -3 5 6 12 20 16 15 4 24 12 23 21 -4 18 70 61 332 194 219
110 199 108 245 18z m-120 -59 c-4 -6 -10 -8 -14 -5 -5 2 -16 -4 -25 -14 -13
-14 -14 -24 -7 -44 8 -19 6 -28 -5 -37 -12 -11 -14 -5 -14 33 0 36 5 49 22 61
25 18 53 21 43 6z m5 -44 c0 -3 -4 -8 -10 -11 -5 -3 -10 -1 -10 4 0 6 5 11 10
11 6 0 10 -2 10 -4z m-124 -83 c-11 -29 -17 -6 -9 33 7 36 8 37 11 11 2 -16 1
-36 -2 -44z m4521 -103 c3 -58 1 -121 -4 -140 -7 -27 -10 -4 -11 100 -1 74 -4
151 -7 170 l-5 35 11 -30 c5 -16 13 -77 16 -135z m-4587 109 c0 -28 -6 -46
-17 -55 -29 -21 -33 -17 -33 35 0 49 4 54 43 60 4 0 7 -18 7 -40z m-74 -31 c9
-43 9 -43 -30 -66 -21 -12 -40 -21 -41 -20 -1 2 -5 22 -9 45 -6 38 -4 42 27
62 17 11 35 21 38 21 3 0 9 -19 15 -42z m-317 -110 c34 -103 110 -382 105
-387 -14 -14 -38 45 -87 219 -31 107 -59 203 -62 213 -5 11 -2 17 8 17 10 0
23 -22 36 -62z m4611 -98 c24 -15 18 -155 -8 -204 -17 -31 -23 -36 -28 -23 -7
18 -34 23 -34 7 0 -6 8 -27 19 -48 38 -77 35 -129 -3 -57 -20 37 -83 91 -94
81 -3 -4 12 -24 33 -46 21 -22 36 -42 32 -46 -8 -8 -103 49 -142 86 -16 15
-39 30 -50 32 -18 4 -17 6 7 16 44 18 104 86 134 151 l28 61 46 0 c25 0 52 -5
60 -10z m-1290 -41 c0 -6 -5 -19 -11 -31 -15 -27 -3 -35 21 -13 11 10 23 15
28 10 4 -4 1 -10 -5 -12 -7 -3 -13 -9 -13 -15 0 -5 -9 -23 -21 -39 -11 -16
-18 -36 -16 -44 4 -8 -11 -30 -33 -51 -36 -35 -93 -141 -93 -171 0 -7 -7 -13
-16 -14 -9 0 -24 -2 -33 -4 -14 -3 -16 0 -8 15 6 10 10 27 10 37 -1 14 -6 12
-26 -12 l-26 -30 6 40 6 40 -24 -29 c-16 -20 -25 -24 -28 -15 -4 10 -11 7 -26
-11 -26 -31 -28 -16 -4 25 48 78 31 88 -27 15 -50 -63 -58 -44 -14 36 36 67
40 79 21 67 -28 -17 -35 -9 -37 39 -2 44 1 52 30 79 17 16 35 29 40 29 4 0 6
6 3 14 -5 12 15 27 41 31 19 3 26 -7 15 -20 -7 -9 -6 -16 5 -25 13 -11 19 -9
38 7 28 26 91 46 115 38 11 -3 24 0 30 8 13 15 52 20 52 6z m-300 -19 c-8 -5
-22 -9 -30 -9 -10 0 -8 3 5 9 27 12 43 12 25 0z m-55 -40 c-10 -11 -23 -20
-28 -20 -6 0 -2 9 8 20 10 11 23 20 28 20 6 0 2 -9 -8 -20z m-1875 -260 c-27
-177 -71 -281 -160 -385 -53 -62 -140 -179 -140 -189 0 -15 40 -3 81 22 63 41
132 123 185 222 54 102 48 70 -11 -55 -24 -52 -61 -112 -88 -141 -26 -29 -47
-55 -47 -59 0 -8 60 25 143 79 31 20 57 32 57 26 0 -24 -113 -130 -156 -146
-102 -39 -371 30 -448 115 -23 25 -20 26 27 6 52 -22 146 -19 214 6 83 30 179
127 233 233 37 73 51 123 108 366 l6 25 4 -25 c2 -13 -1 -58 -8 -100z m-805
82 c-3 -3 -11 0 -18 7 -9 10 -8 11 6 5 10 -3 15 -9 12 -12z m-195 -23 c0 -6
14 -27 30 -46 49 -55 37 -87 -13 -35 -29 30 -48 92 -28 92 6 0 11 -5 11 -11z
m430 -74 c0 -8 -4 -15 -9 -15 -5 0 -11 7 -15 15 -3 9 0 15 9 15 8 0 15 -7 15
-15z m-390 -97 c18 -31 -7 -20 -50 20 -25 25 -40 48 -40 63 0 22 4 20 40 -21
22 -25 45 -53 50 -62z m333 87 c4 -8 2 -17 -3 -20 -6 -4 -10 3 -10 14 0 25 6
27 13 6z m-53 -5 c0 -5 -5 -10 -11 -10 -5 0 -7 5 -4 10 3 6 8 10 11 10 2 0 4
-4 4 -10z m-30 -40 c0 -21 -15 -28 -47 -22 -31 6 -29 18 4 36 32 16 43 13 43
-14z m60 20 c0 -5 -2 -10 -4 -10 -3 0 -8 5 -11 10 -3 6 -1 10 4 10 6 0 11 -4
11 -10z m-160 -39 c0 -25 -17 -37 -62 -44 -42 -6 -43 -5 -27 24 7 14 16 18 30
14 11 -4 19 -3 18 2 -3 18 2 23 21 23 13 0 20 -7 20 -19z m150 5 c0 -2 -7 -7
-16 -10 -8 -3 -12 -2 -9 4 6 10 25 14 25 6z m-110 -37 c0 -5 -10 -9 -21 -9
-18 0 -19 2 -9 15 12 15 30 12 30 -6z m3760 -265 c-15 -39 -12 -49 9 -30 34
30 45 -7 26 -89 -9 -43 -12 -42 -22 7 l-9 43 -67 0 c-45 0 -71 5 -76 13 -6 10
-10 10 -21 -3 -10 -11 -16 -13 -26 -4 -17 14 -7 32 12 25 8 -3 14 1 14 9 0 7
9 17 20 20 11 3 20 12 20 18 0 7 4 6 11 -3 8 -11 12 -12 16 -2 7 18 33 15 33
-5 0 -15 1 -15 13 -1 11 14 31 25 49 27 4 1 3 -11 -2 -25z m172 14 c7 -7 22
-15 33 -16 37 -7 144 -89 145 -112 0 -3 -45 -6 -100 -7 -90 -2 -101 0 -110 18
-6 10 -20 19 -30 19 -17 0 -20 7 -19 43 1 23 3 33 6 22 6 -25 23 -44 23 -26 0
7 5 9 10 6 6 -4 10 8 10 29 0 38 10 45 32 24z m-2426 -114 c-3 -8 -10 -14 -16
-14 -11 0 -4 64 9 85 8 13 14 -52 7 -71z m73 -24 c1 -14 7 -50 15 -80 l14 -55
-24 28 c-31 36 -38 66 -29 125 6 37 9 43 16 27 4 -11 8 -31 8 -45z m-198 -203
c-17 -17 -21 -3 -11 34 6 18 11 59 12 89 1 38 3 29 5 -29 2 -49 0 -88 -6 -94z
m168 28 c6 -27 26 -80 45 -117 l34 -67 -29 22 c-48 35 -79 110 -78 186 0 71 8
65 28 -24z m-75 -32 c-52 -122 -56 -138 -49 -189 3 -28 15 -66 27 -84 l20 -34
18 22 c28 34 29 27 10 -35 -20 -66 -15 -126 15 -183 16 -32 17 -34 1 -21 -21
17 -56 84 -56 106 0 8 -4 15 -9 15 -17 0 -24 -86 -11 -126 13 -40 103 -134
152 -160 25 -13 27 -12 30 7 2 18 17 7 94 -68 96 -96 136 -127 147 -116 17 16
6 100 -18 142 -21 36 -25 56 -25 126 0 45 5 97 11 114 11 30 9 35 -23 69 -54
57 -68 83 -68 127 0 60 16 76 24 24 6 -38 49 -128 80 -168 6 -8 11 -56 11
-110 1 -72 6 -114 24 -169 21 -66 41 -87 41 -42 0 10 5 22 10 25 6 4 10 -6 10
-22 0 -40 51 -144 95 -192 27 -30 33 -41 21 -41 -26 0 -113 92 -121 128 -12
55 -28 37 -22 -23 5 -49 36 -121 69 -160 36 -42 98 -175 103 -219 6 -48 5 -50
-10 -31 -28 35 -84 152 -96 202 -7 27 -27 66 -46 87 -18 22 -41 57 -50 78 -9
21 -24 38 -32 38 -38 0 -104 45 -144 98 -39 52 -42 54 -48 31 -11 -37 -10
-105 1 -136 9 -26 9 -27 -5 -8 -18 23 -35 79 -35 117 0 21 -16 40 -86 95 -90
71 -128 121 -139 186 -6 31 -2 50 25 104 29 58 31 69 19 87 -49 77 -62 149
-38 213 14 40 72 133 81 133 5 0 1 -17 -8 -37z m-787 -243 l8 -74 20 29 c17
26 20 44 17 145 l-2 115 29 -85 c28 -83 121 -268 121 -241 0 8 -20 51 -45 97
-50 92 -53 104 -26 104 23 0 102 -106 120 -160 13 -40 47 -88 56 -79 3 4 1 18
-4 33 -16 40 5 32 35 -13 23 -35 120 -284 137 -351 5 -21 0 -18 -36 20 -23 25
-50 56 -59 70 -10 14 3 -20 28 -75 42 -93 96 -195 188 -354 20 -35 35 -66 32
-68 -2 -2 -20 18 -39 44 -20 26 -54 66 -77 88 l-41 40 15 -35 c42 -101 89
-198 111 -226 13 -17 27 -43 31 -58 4 -15 12 -30 20 -33 15 -6 47 -81 39 -94
-9 -14 -35 -11 -29 4 3 8 -2 20 -11 27 -8 7 -15 19 -15 28 0 8 -3 13 -6 10 -9
-9 15 -86 28 -90 6 -2 8 -9 4 -16 -10 -16 -36 -3 -36 18 0 9 -14 36 -31 60
l-31 43 -36 -36 c-27 -28 -33 -39 -24 -49 14 -18 54 -111 44 -104 -9 6 -39 65
-209 413 -76 156 -139 279 -141 275 -2 -8 90 -279 135 -398 l20 -50 -26 3
c-14 2 -33 -1 -41 -7 -13 -9 -11 -14 14 -36 22 -19 31 -22 42 -13 8 6 14 19
14 28 0 8 9 -1 20 -22 25 -47 25 -57 -1 -57 -17 0 -19 3 -10 14 6 7 8 21 5 30
-6 15 -7 15 -19 -1 -7 -10 -11 -21 -9 -25 9 -14 -35 -29 -55 -19 -22 12 -75
-1 -101 -24 -19 -17 -37 -5 -24 16 4 6 8 86 10 178 4 184 1 189 -53 73 -14
-29 -27 -52 -29 -50 -2 3 1 31 6 64 16 94 9 284 -10 284 -4 0 -11 -15 -17 -32
-6 -18 -25 -71 -41 -117 l-30 -83 -17 28 c-16 28 -16 28 -10 -41 21 -261 21
-263 -30 -143 -28 64 -45 79 -45 37 0 -11 -7 -35 -15 -55 l-14 -35 -31 16
c-41 21 -38 12 4 -14 21 -13 33 -28 32 -39 -2 -9 -5 -17 -8 -17 -13 0 -188
109 -188 118 0 5 29 55 64 111 83 133 126 212 172 316 l37 85 8 285 c4 157 11
310 15 340 l8 55 13 -75 c7 -41 16 -109 20 -150z m1228 159 c9 -16 32 -48 52
-70 37 -41 37 -47 0 -28 -54 28 -93 82 -81 114 8 21 11 19 29 -16z m-1055 -31
c0 -12 -14 -9 -35 6 -12 9 -16 19 -11 32 7 18 8 17 26 -6 11 -14 20 -28 20
-32z m464 -86 c11 -21 19 -64 21 -110 2 -42 9 -99 15 -127 16 -72 -2 -141 -54
-210 -11 -16 -10 -3 6 60 17 67 19 87 9 128 -14 61 -14 137 -1 173 8 20 7 31
-4 43 -43 49 -55 107 -34 158 11 27 12 26 18 -27 4 -30 15 -70 24 -88z m200
76 c4 -24 23 -78 42 -121 28 -62 35 -86 29 -113 -8 -46 -21 -43 -28 6 -3 21
-14 52 -25 67 -26 36 -42 96 -42 156 0 58 15 62 24 5z m-540 -4 c4 -9 4 -19 1
-22 -6 -6 -35 18 -35 29 0 16 28 10 34 -7z m17 -126 c7 -13 6 -18 -4 -18 -25
0 -51 26 -44 45 6 14 10 15 23 4 8 -7 20 -21 25 -31z m692 -186 c20 -32 37
-65 37 -73 -1 -25 -90 81 -90 107 0 37 12 29 53 -34z m250 -76 c-6 -71 -7 -76
-19 -55 -18 32 -17 74 2 110 8 17 17 29 19 27 2 -2 1 -39 -2 -82z m-254 -99
c20 -21 53 -47 74 -58 61 -32 45 -51 -24 -28 -65 22 -127 99 -144 179 l-7 35
32 -45 c18 -25 49 -62 69 -83z m723 -134 c17 -26 47 -64 66 -85 40 -44 37 -56
-6 -34 -68 35 -137 149 -147 242 l-5 49 29 -63 c17 -34 45 -83 63 -109z m-992
40 c18 -32 52 -81 76 -108 24 -28 48 -64 54 -80 19 -50 -118 90 -146 150 -21
44 -32 95 -20 95 2 0 19 -26 36 -57z m765 -108 c22 -40 35 -76 33 -92 -3 -22
-7 -17 -35 38 -31 64 -50 119 -40 119 3 0 22 -29 42 -65z m-889 -7 c21 -29 62
-79 91 -110 29 -31 53 -64 53 -72 0 -13 -3 -13 -19 3 -27 27 -71 55 -77 49 -3
-3 3 -24 12 -48 10 -26 20 -37 24 -30 4 7 10 8 13 4 3 -5 -1 -14 -8 -21 -11
-10 -24 10 -69 100 -50 101 -78 177 -63 177 3 0 22 -24 43 -52z m788 26 c3 -9
6 -23 6 -32 -1 -12 -5 -10 -15 8 -8 14 -14 28 -15 33 0 13 18 7 24 -9z m-238
-246 c27 -26 60 -56 74 -67 l25 -20 -45 16 c-104 39 -169 110 -184 204 -12 77
5 74 44 -8 24 -52 53 -94 86 -125z m554 132 c8 -23 38 -69 67 -102 60 -67 63
-87 5 -41 -54 43 -102 118 -102 160 0 43 12 36 30 -17z m-86 -150 c14 -21 44
-50 66 -62 38 -22 51 -38 31 -38 -60 0 -164 104 -134 133 9 10 8 11 37 -33z
m-249 -6 c14 -9 25 -25 25 -37 0 -20 0 -20 -21 -1 -22 20 -44 54 -34 54 3 0
17 -7 30 -16z m395 -67 c16 -41 37 -71 74 -103 l51 -46 -40 17 c-76 31 -125
98 -125 173 0 45 10 34 40 -41z m-152 -87 c35 -17 61 -34 58 -37 -9 -10 -74
-5 -96 7 -35 19 -22 -7 22 -44 30 -26 37 -36 23 -36 -9 0 -37 19 -60 43 -34
33 -48 41 -72 39 -19 -2 -35 3 -44 14 -15 18 -14 18 54 -3 26 -8 21 9 -18 60
-19 25 -35 56 -35 69 0 20 6 16 53 -29 28 -29 81 -66 115 -83z m362 25 c0 -8
-4 -15 -9 -15 -16 0 -71 74 -71 95 0 16 7 13 40 -22 22 -23 40 -49 40 -58z
m-2479 -61 c129 -37 403 -202 569 -342 83 -70 191 -175 150 -145 -8 5 -49 35
-90 65 -41 30 -100 72 -130 93 l-55 38 50 -52 c28 -28 56 -51 63 -51 6 0 12
-4 12 -9 0 -5 30 -40 68 -78 103 -105 105 -115 7 -32 -49 41 -127 104 -173
139 -46 35 -87 71 -93 81 -5 10 -24 28 -41 40 l-33 23 25 -29 25 -29 -28 18
c-77 48 -130 76 -134 72 -3 -2 42 -39 99 -80 260 -192 412 -321 584 -497 143
-147 197 -212 99 -119 -160 151 -382 350 -455 407 -60 48 -245 175 -331 228
-9 5 -42 27 -73 48 -31 20 -61 37 -66 37 -6 0 -10 3 -10 8 0 4 -16 20 -37 36
l-36 29 19 -32 c17 -29 63 -71 78 -71 12 0 97 -63 115 -85 10 -14 24 -25 30
-25 6 0 11 -4 11 -10 0 -5 6 -10 14 -10 8 0 18 -5 22 -12 5 -8 -1 -9 -22 -5
-30 6 -379 261 -379 276 0 12 71 91 82 91 5 0 34 -7 64 -16z m2564 -14 c53
-25 57 -29 30 -29 -35 -1 -115 33 -115 49 0 16 19 11 85 -20z m-365 -44 c22
-20 54 -37 76 -41 32 -6 44 -15 69 -53 17 -26 53 -62 80 -81 49 -33 49 -34 17
-27 -63 11 -101 37 -132 87 -20 34 -36 49 -51 49 -33 0 -94 38 -113 71 -16 27
-16 29 0 29 9 0 33 -15 54 -34z m180 -27 c8 -2 25 1 37 5 18 6 33 0 65 -27 57
-45 80 -57 120 -58 l33 -1 -35 -9 c-47 -12 -78 -3 -125 35 -28 23 -54 35 -87
38 -53 6 -98 31 -98 53 0 12 9 10 38 -9 20 -14 44 -26 52 -27z m-2686 -9 c117
-50 329 -188 591 -386 165 -124 272 -224 155 -143 -101 69 -330 209 -342 209
-5 0 -6 -5 -2 -12 4 -7 3 -8 -5 -4 -6 4 -9 11 -7 15 3 4 -24 22 -60 39 -35 18
-64 30 -64 27 0 -2 18 -14 40 -25 22 -11 40 -23 40 -26 0 -2 -8 0 -17 5 -10 5
-21 10 -25 10 -4 1 -15 4 -23 8 -9 3 -19 2 -22 -1 -4 -4 3 -9 15 -13 12 -3 19
-9 16 -14 -3 -5 -2 -8 3 -7 8 3 18 -5 162 -133 47 -41 111 -94 141 -116 85
-64 126 -100 118 -108 -8 -8 -95 50 -199 132 -109 86 -171 130 -196 137 -11 4
-48 24 -82 46 -34 22 -61 38 -61 35 0 -6 142 -100 164 -108 10 -4 45 -26 78
-49 l61 -43 -27 -20 c-15 -11 -57 -38 -94 -61 l-67 -41 -11 -84 c-6 -46 -12
-79 -13 -74 -2 6 -6 2 -9 -8 -7 -16 -13 -14 -63 22 -57 40 -108 104 -248 304
-45 64 -84 117 -86 117 -1 0 33 -77 77 -171 88 -187 101 -237 72 -266 -17 -17
-17 -17 -12 4 4 16 2 20 -8 16 -8 -3 -11 -9 -8 -14 3 -5 -2 -6 -11 -3 -11 5
-14 2 -9 -10 5 -12 2 -15 -10 -10 -10 4 -15 12 -12 19 3 8 -2 11 -15 8 -10 -3
-19 -1 -19 4 0 5 -7 10 -15 10 -8 0 -12 -4 -9 -9 6 -10 6 -10 -34 1 -18 6 -30
6 -27 1 3 -5 -11 -7 -31 -4 -27 3 -40 0 -49 -13 -10 -14 -16 -15 -28 -5 -12
10 -18 10 -29 -1 -8 -8 -25 -18 -38 -22 -14 -4 -35 -14 -48 -22 -13 -8 -33
-16 -45 -19 -11 -2 -39 -12 -62 -23 -41 -19 -67 -24 -119 -22 -28 1 -29 1 -11
21 10 11 13 20 8 20 -6 0 -16 -7 -23 -15 -7 -9 -15 -13 -18 -10 -3 3 -10 1
-16 -4 -22 -18 -146 -81 -146 -75 0 4 -10 -1 -22 -12 -12 -10 -19 -14 -15 -8
4 7 -5 11 -23 11 -19 0 -30 -5 -30 -14 0 -8 -5 -11 -10 -8 -6 4 -18 1 -27 -7
-14 -11 -16 -11 -10 4 4 11 2 15 -6 12 -7 -2 -13 6 -13 21 -1 16 2 22 10 18 6
-4 20 -6 31 -5 15 2 17 1 6 -6 -10 -7 -10 -11 -1 -17 7 -4 13 1 17 14 3 11 10
18 16 14 7 -4 8 0 3 12 -4 10 0 28 9 41 19 30 16 30 -48 -3 -29 -14 -65 -29
-82 -33 -35 -7 -48 -40 -16 -40 13 0 21 -6 21 -17 0 -9 -2 -14 -6 -11 -3 3
-21 2 -40 -2 -24 -6 -50 -3 -79 7 -29 9 -50 11 -60 5 -14 -7 -8 -14 32 -40 26
-18 43 -32 36 -32 -6 0 -14 4 -17 9 -8 12 -123 33 -146 26 -24 -8 -130 14
-130 27 0 4 5 8 11 8 20 0 367 189 500 271 305 189 619 455 807 681 35 43 65
78 67 78 2 0 24 -9 49 -20z m3275 -100 c24 -11 41 -23 38 -26 -8 -9 -117 25
-117 36 0 16 31 11 79 -10z m-348 -55 c68 -32 71 -35 39 -35 -41 0 -120 37
-120 56 0 19 -2 19 81 -21z m334 -35 c32 -36 70 -50 132 -50 72 -1 50 -20 -25
-21 -58 -2 -112 22 -147 63 -44 52 -7 60 40 8z m-2662 -95 c8 -19 -5 -26 -23
-14 -8 5 -10 9 -5 9 6 0 3 5 -5 10 -12 8 -11 10 6 10 12 0 24 -7 27 -15z
m-143 -80 c19 -14 30 -25 24 -25 -10 0 -73 49 -63 50 3 0 20 -11 39 -25z
m3128 -205 c-24 -93 -20 -243 12 -396 23 -110 25 -274 4 -281 -7 -2 -14 9 -17
24 -38 191 -47 233 -58 263 -24 71 -29 64 -48 -75 -6 -44 -16 -108 -22 -142
-10 -56 -9 -69 12 -127 19 -54 21 -68 11 -88 -7 -13 -13 -56 -14 -95 -2 -40
-7 -73 -12 -73 -4 0 -6 18 -4 40 4 45 3 46 -19 25 -17 -17 -38 -15 -38 3 0 7
-13 28 -28 47 -27 34 -23 49 7 20 8 -8 19 -15 25 -15 6 0 11 -4 11 -10 0 -5 7
-10 15 -10 18 0 20 87 2 137 -15 44 8 303 38 418 25 98 48 245 40 253 -6 6 -3
12 -43 -69 -44 -90 -116 -185 -152 -204 -31 -16 -40 -7 -17 17 49 53 121 160
172 257 51 97 67 119 100 138 22 12 40 21 41 20 1 -1 -7 -36 -18 -77z m-2811
-13 c67 -55 91 -79 61 -61 -12 7 -167 131 -178 142 -24 24 59 -33 117 -81z
m3280 -38 c139 -164 314 -446 312 -506 0 -33 1 -35 -70 92 -73 128 -204 325
-294 440 -67 85 -71 94 -35 62 23 -20 62 -59 87 -88z m-692 -62 c-11 -28 -28
-43 -66 -62 -28 -15 -63 -25 -77 -23 -26 3 -25 4 16 26 45 24 131 124 134 157
1 11 3 2 5 -20 2 -22 -3 -57 -12 -78z m-1460 23 c3 -5 1 -10 -4 -10 -6 0 -11
5 -11 10 0 6 2 10 4 10 3 0 8 -4 11 -10z m1385 1 c0 -13 -41 -41 -60 -41 -9 0
-4 9 15 25 32 26 45 31 45 16z m663 -144 c29 -40 64 -90 79 -113 74 -115 183
-375 175 -419 -4 -23 -2 -26 -62 130 -37 97 -163 334 -227 429 -55 80 -30 61
35 -27z m-1148 -150 c55 -117 111 -196 211 -298 52 -53 94 -101 94 -108 0 -8
5 -8 19 1 17 10 26 6 66 -28 26 -21 62 -50 81 -64 18 -14 32 -30 30 -36 -3 -7
2 -21 10 -33 8 -11 11 -21 7 -21 -5 0 -14 9 -21 21 -12 19 -15 20 -31 5 -20
-18 -61 -22 -61 -5 0 5 5 7 10 4 6 -3 10 3 10 14 0 25 -8 26 -32 4 -17 -15
-19 -15 -36 0 -24 22 -56 23 -48 1 5 -12 2 -15 -10 -10 -26 10 -153 110 -154
121 0 6 -31 45 -68 88 -106 122 -132 181 -45 104 21 -19 49 -42 62 -53 13 -10
32 -28 42 -38 10 -11 22 -17 25 -13 3 3 -12 25 -35 48 -23 24 -41 46 -41 51 0
16 -78 117 -85 110 -5 -4 -5 -2 -2 5 4 6 -4 34 -18 62 -28 56 -47 159 -26 147
6 -4 27 -40 46 -79z m945 9 c0 -3 -4 -8 -10 -11 -5 -3 -10 -1 -10 4 0 6 5 11
10 11 6 0 10 -2 10 -4z m-4753 -48 c-3 -8 -6 -5 -6 6 -1 11 2 17 5 13 3 -3 4
-12 1 -19z m4773 13 c0 -6 -4 -13 -10 -16 -5 -3 -10 1 -10 9 0 9 5 16 10 16 6
0 10 -4 10 -9z m30 -63 c7 -24 17 -47 22 -52 11 -14 10 -56 -2 -56 -6 0 -8 12
-4 28 4 18 3 23 -4 14 -7 -11 -12 -7 -20 16 -6 17 -8 33 -5 36 4 3 2 6 -4 6
-12 0 -24 36 -15 44 12 13 19 4 32 -36z m-4915 -16 c-3 -3 -11 0 -18 7 -9 10
-8 11 6 5 10 -3 15 -9 12 -12z m-365 -100 c0 -5 -12 -8 -27 -7 -30 2 -63 -20
-63 -42 0 -9 13 -13 40 -13 33 0 40 -3 40 -19 0 -11 -14 -27 -32 -38 -18 -11
-77 -56 -132 -101 -88 -74 -127 -97 -125 -74 0 4 35 55 77 113 150 207 132
188 180 189 23 0 42 -4 42 -8z m-29 -159 c-11 -21 -102 -110 -145 -141 -33
-25 -66 -29 -66 -8 0 7 8 20 19 27 10 8 53 42 95 77 77 62 117 80 97 45z
m4889 -163 c0 -5 -2 -10 -4 -10 -3 0 -8 5 -11 10 -3 6 -1 10 4 10 6 0 11 -4
11 -10z m-5190 -54 c0 -2 -7 -9 -15 -16 -13 -11 -14 -10 -9 4 5 14 24 23 24
12z m-10 -86 c-96 -90 -136 -118 -84 -57 16 18 51 58 78 90 37 42 57 57 75 57
23 0 14 -12 -69 -90z m5130 64 c0 -2 -12 -4 -26 -4 -14 0 -23 4 -20 9 6 8 46
4 46 -5z m-110 -4 c0 -5 -4 -10 -10 -10 -5 0 -10 5 -10 10 0 6 5 10 10 10 6 0
10 -4 10 -10z m180 2 c0 -5 -7 -9 -15 -9 -8 0 -15 4 -15 9 0 4 7 8 15 8 8 0
15 -4 15 -8z m-278 -43 c13 -5 30 -25 38 -42 11 -23 21 -31 34 -29 17 3 18 1
7 -12 -14 -17 -7 -36 14 -36 8 0 26 -12 42 -26 17 -16 36 -24 49 -21 14 2 26
-4 34 -17 12 -19 11 -20 -3 -8 -10 9 -17 9 -22 3 -4 -7 -15 -5 -31 5 -13 9
-24 13 -24 9 0 -5 -8 -1 -17 7 -10 9 -27 18 -38 20 -10 2 -41 30 -68 63 -26
33 -54 60 -60 59 -7 0 -41 -4 -77 -7 -59 -7 -63 -6 -49 9 9 8 38 19 65 23 70
12 80 12 106 0z m-2012 -105 c0 -9 -7 -14 -17 -12 -25 5 -28 28 -4 28 12 0 21
-6 21 -16z m3227 -56 c-3 -8 -6 -5 -6 6 -1 11 2 17 5 13 3 -3 4 -12 1 -19z"/>
<path d="M3711 8941 c-33 -41 -37 -51 -21 -51 6 0 10 6 10 14 0 7 7 19 16 26
16 14 38 50 30 50 -2 0 -18 -18 -35 -39z"/>
<path d="M4645 8707 c5 -17 4 -27 -3 -25 -5 2 -10 0 -11 -4 -2 -14 3 -13 25 2
21 15 21 15 2 35 -19 20 -20 20 -13 -8z"/>
<path d="M4615 8709 c-4 -6 -5 -12 -2 -15 2 -3 7 2 10 11 7 17 1 20 -8 4z"/>
<path d="M4581 8684 c0 -11 3 -14 6 -6 3 7 2 16 -1 19 -3 4 -6 -2 -5 -13z"/>
<path d="M4593 8658 c-7 -8 -8 -19 -3 -28 8 -12 10 -12 15 2 10 26 2 43 -12
26z"/>
<path d="M4740 8395 c0 -9 6 -12 15 -9 8 4 12 10 9 15 -8 14 -24 10 -24 -6z"/>
<path d="M4365 8370 c-13 -5 -14 -9 -5 -9 8 0 24 4 35 9 13 5 14 9 5 9 -8 0
-24 -4 -35 -9z"/>
<path d="M3616 7987 c3 -10 9 -15 12 -12 3 3 0 11 -7 18 -10 9 -11 8 -5 -6z"/>
<path d="M3655 7940 c17 -19 45 -27 45 -14 0 11 -34 33 -49 34 -11 0 -10 -5 4
-20z"/>
<path d="M3534 7942 c-5 -4 -9 -13 -8 -19 1 -7 2 -17 3 -23 3 -22 31 -9 31 14
0 27 -11 38 -26 28z"/>
<path d="M3482 7904 c-23 -16 -30 -44 -12 -44 6 0 14 8 17 18 4 9 11 20 17 24
6 4 8 9 5 12 -3 3 -15 -1 -27 -10z"/>
<path d="M3696 7895 c4 -8 8 -15 10 -15 2 0 4 7 4 15 0 8 -4 15 -10 15 -5 0
-7 -7 -4 -15z"/>
<path d="M3587 7873 c-12 -12 -7 -43 7 -43 18 0 39 27 31 40 -7 11 -28 13 -38
3z"/>
<path d="M3648 7868 c9 -9 8 -16 -6 -32 -17 -21 -17 -21 5 -2 18 15 20 22 12
33 -6 7 -14 13 -17 13 -3 0 -1 -5 6 -12z"/>
<path d="M3814 7535 c0 -14 5 -24 9 -22 5 1 8 6 8 10 -1 4 -1 14 -1 22 0 8 -4
15 -9 15 -5 0 -8 -11 -7 -25z"/>
<path d="M3875 7540 c-4 -6 7 -10 27 -10 25 0 29 3 18 10 -19 13 -37 13 -45 0z"/>
<path d="M3750 7522 c0 -11 8 -18 20 -19 23 -2 26 7 8 25 -17 17 -28 15 -28
-6z"/>
<path d="M3642 7488 c-16 -16 -15 -38 2 -38 20 0 29 17 19 35 -7 12 -12 12
-21 3z"/>
<path d="M4020 7429 c0 -11 4 -18 10 -14 5 3 7 12 3 20 -7 21 -13 19 -13 -6z"/>
<path d="M4156 7332 c-3 -6 -1 -14 5 -17 15 -10 25 3 12 16 -7 7 -13 7 -17 1z"/>
<path d="M4160 7266 c0 -9 7 -16 16 -16 17 0 14 22 -4 28 -7 2 -12 -3 -12 -12z"/>
<path d="M4165 7199 c-11 -17 1 -21 15 -4 8 9 8 15 2 15 -6 0 -14 -5 -17 -11z"/>
<path d="M4120 7176 c0 -9 5 -16 10 -16 6 0 10 4 10 9 0 6 -4 13 -10 16 -5 3
-10 -1 -10 -9z"/>
<path d="M4052 6888 c5 -15 28 -23 28 -10 0 5 -7 13 -16 16 -10 4 -14 1 -12
-6z"/>
<path d="M4055 6830 c3 -5 8 -10 11 -10 2 0 4 5 4 10 0 6 -5 10 -11 10 -5 0
-7 -4 -4 -10z"/>
<path d="M3320 6440 c-25 -16 -38 -30 -29 -30 9 0 22 7 30 16 7 8 26 21 43 29
17 7 24 14 16 14 -8 1 -35 -13 -60 -29z"/>
<path d="M3485 6283 c-20 -4 -51 -41 -42 -50 7 -6 61 23 76 41 14 17 10 18
-34 9z"/>
<path d="M3025 5996 c-62 -34 -115 -67 -115 -73 0 -6 113 56 142 79 30 23 22
22 -27 -6z"/>
<path d="M3450 5778 c0 -21 0 -21 15 -2 14 19 14 19 15 0 0 -16 3 -17 12 -8
10 10 10 15 -2 22 -25 16 -40 11 -40 -12z"/>
<path d="M3443 5643 c-19 -7 -16 -53 2 -53 9 0 18 6 21 14 7 19 -8 44 -23 39z"/>
<path d="M3317 5536 c-3 -8 -2 -18 4 -22 16 -9 22 2 11 21 -8 15 -10 16 -15 1z"/>
<path d="M3036 5771 c-4 -7 -5 -15 -2 -18 9 -9 19 4 14 18 -4 11 -6 11 -12 0z"/>
<path d="M6047 5443 c-4 -3 -7 -11 -7 -17 0 -6 5 -5 12 2 6 6 9 14 7 17 -3 3
-9 2 -12 -2z"/>
<path d="M3510 4694 c-25 -7 -55 -14 -67 -14 -39 0 -25 -16 24 -27 54 -13 55
-13 83 27 24 34 23 34 -40 14z"/>
<path d="M3776 4118 c-18 -28 -32 -118 -19 -118 13 0 49 69 56 108 8 39 -14
45 -37 10z"/>
<path d="M3783 3981 c-24 -32 -31 -71 -12 -71 12 0 41 66 37 87 -2 10 -10 6
-25 -16z"/>
<path d="M3752 3800 c0 -19 2 -27 5 -17 2 9 2 25 0 35 -3 9 -5 1 -5 -18z"/>
<path d="M4144 3426 c-9 -24 12 -44 28 -28 10 10 8 16 -5 29 -15 15 -17 15
-23 -1z"/>
<path d="M4215 3336 c-16 -12 -17 -16 -6 -30 14 -17 56 -22 65 -8 6 10 -21 52
-33 52 -4 0 -16 -6 -26 -14z"/>
<path d="M4000 3319 c0 -6 7 -9 15 -5 10 3 15 -1 15 -14 0 -22 18 -36 31 -23
13 13 -18 53 -42 53 -10 0 -19 -5 -19 -11z"/>
<path d="M4253 3243 c-18 -7 -16 -48 2 -63 30 -25 61 30 33 58 -13 13 -16 13
-35 5z"/>
<path d="M4327 3233 c-14 -13 -6 -33 18 -49 34 -22 47 -10 27 26 -17 29 -32
37 -45 23z"/>
<path d="M3960 3202 c0 -15 -5 -33 -12 -40 -9 -9 -9 -12 0 -12 19 0 72 29 72
39 0 25 -15 41 -36 41 -20 0 -24 -5 -24 -28z"/>
<path d="M3522 2956 c7 -8 16 -12 21 -9 11 7 -2 23 -19 23 -12 0 -12 -2 -2
-14z"/>
<path d="M2180 2309 c-22 -18 -22 -19 -3 -10 12 6 25 16 28 21 9 15 3 12 -25
-11z"/>
<path d="M2109 2263 c-13 -17 -13 -17 6 -3 11 8 22 16 24 17 2 2 0 3 -6 3 -6
0 -17 -8 -24 -17z"/>
<path d="M5950 1830 c0 -5 5 -10 10 -10 6 0 10 5 10 10 0 6 -4 10 -10 10 -5 0
-10 -4 -10 -10z"/>
<path d="M5980 1790 c0 -5 5 -10 10 -10 6 0 10 5 10 10 0 6 -4 10 -10 10 -5 0
-10 -4 -10 -10z"/>
<path d="M6020 1750 c0 -5 5 -10 10 -10 6 0 10 5 10 10 0 6 -4 10 -10 10 -5 0
-10 -4 -10 -10z"/>
<path d="M6130 1720 c-11 -7 -11 -11 -1 -24 18 -22 31 -20 31 3 0 24 -12 32
-30 21z"/>
<path d="M6060 1709 c0 -5 5 -7 10 -4 6 3 10 8 10 11 0 2 -4 4 -10 4 -5 0 -10
-5 -10 -11z"/>
</g>
</svg>
